<?xml version="1.0" encoding="UTF-8" standalone="no"?>
<!-- Created with Inkscape (http://www.inkscape.org/) -->

<svg
   version="1.1"
   id="svg2"
   width="300"
   height="300"
   viewBox="0 0 300 300"
   sodipodi:docname="Ebrea_Outline.svg"
   inkscape:version="1.1.1 (3bf5ae0d25, 2021-09-20)"
   xmlns:inkscape="http://www.inkscape.org/namespaces/inkscape"
   xmlns:sodipodi="http://sodipodi.sourceforge.net/DTD/sodipodi-0.dtd"
   xmlns="http://www.w3.org/2000/svg"
   xmlns:svg="http://www.w3.org/2000/svg">
  <defs
     id="defs6" />
  <sodipodi:namedview
     id="namedview4"
     pagecolor="#505050"
     bordercolor="#eeeeee"
     borderopacity="1"
     inkscape:pageshadow="0"
     inkscape:pageopacity="0"
     inkscape:pagecheckerboard="0"
     showgrid="false"
     inkscape:zoom="2.964215"
     inkscape:cx="231.93324"
     inkscape:cy="145.56974"
     inkscape:window-width="3440"
     inkscape:window-height="1369"
     inkscape:window-x="-8"
     inkscape:window-y="-8"
     inkscape:window-maximized="1"
     inkscape:current-layer="g8" />
  <g
     inkscape:groupmode="layer"
     inkscape:label="Image"
     id="g8">
    <path
       style="fill:#000000;stroke-width:1"
       d="m 59.735819,294.3516 c -0.99379,-0.2758 -1.584792,-0.61109 -2.16592,-1.22875 -0.992779,-1.05521 -1.090072,-1.40826 -1.086862,-3.9442 l 0.0029,-2.30282 1.297807,-2.62044 c 1.016101,-2.05163 1.463619,-2.78081 2.061675,-3.35927 0.87799,-0.84923 2.604892,-1.76034 3.829764,-2.02061 0.627523,-0.13333 1.118754,-0.39944 1.925158,-1.04284 0.603961,-0.4819 1.118579,-1.02603 1.1639,-1.23063 0.04467,-0.20172 0.370681,-1.00997 0.724445,-1.7961 0.353764,-0.78614 0.7566,-1.80454 0.895195,-2.26311 0.241771,-0.79999 0.238304,-0.86116 -0.08548,-1.50874 -0.435914,-0.87188 -1.484889,-1.96368 -2.28225,-2.37543 -0.829845,-0.42855 -2.334035,-1.94699 -2.806313,-2.83292 -0.336737,-0.63167 -0.377153,-0.9117 -0.377153,-2.61326 0,-1.68287 0.0426,-1.98557 0.36421,-2.5879 0.906102,-1.697 2.315899,-2.65511 4.574885,-3.10912 1.804804,-0.36272 9.044489,-0.36339 9.989465,-0.002 0.848487,0.32549 1.660066,0.50358 3.125687,0.68593 0.701112,0.0872 1.545367,0.3149 1.985182,0.53535 0.420895,0.21097 1.047808,0.43502 1.393138,0.49789 0.739461,0.13465 1.685859,0.59173 1.99405,0.96308 0.120151,0.14476 0.687102,0.51079 1.259892,0.81337 0.572789,0.30259 1.317969,0.71742 1.655954,0.92182 0.802627,0.48542 3.530544,3.20536 3.752721,3.74174 0.131543,0.31758 0.350786,0.45951 0.920195,0.59563 0.411132,0.0983 1.283509,0.32495 1.93862,0.50369 0.736864,0.20103 1.683349,0.32599 2.481848,0.32767 1.614353,0.003 3.302368,0.36929 4.750928,1.02976 0.61513,0.28049 1.4257,0.55909 1.80124,0.61915 1.31146,0.20972 2.49323,1.08829 3.12619,2.32417 0.28324,0.55305 0.45662,2.1163 0.44913,4.04978 -0.003,1.06634 -0.29323,1.76508 -1.07337,2.59427 -0.78143,0.83056 -1.09729,0.95966 -4.52373,1.84886 -0.46699,0.12119 -0.96726,0.32424 -1.1117,0.45123 -0.14445,0.12699 -0.61996,0.41133 -1.0567,0.63186 -1.407469,0.71068 -2.450274,2.1784 -2.458131,3.45975 -0.0035,0.59881 -0.488096,2.38174 -0.902626,3.32214 -0.283226,0.64251 -0.974566,1.49394 -2.451585,3.01924 -0.761917,0.78683 -1.412069,1.26945 -2.382216,1.76838 l -1.334305,0.68622 -2.620435,0.0567 c -4.278127,0.0926 -5.993703,-0.44824 -8.245061,-2.59918 l -1.239655,-1.18406 h -2.09061 c -2.070494,0 -2.101157,0.005 -3.187074,0.55217 -0.603057,0.3037 -1.405272,0.5996 -1.782699,0.65755 -0.703906,0.10808 -3.452634,1.45018 -4.021335,1.96345 -0.451925,0.40785 -2.438082,1.37227 -3.096882,1.50372 -0.305718,0.061 -0.967068,0.24859 -1.469667,0.41687 -1.039393,0.34797 -2.526433,0.38058 -3.612396,0.0792 z M 119.5239,272.37213 c -1.11735,-0.41604 -1.48497,-0.62493 -2.25459,-1.28117 -3.24274,-2.76499 -5.93327,-4.78435 -7.27879,-5.463 -0.82237,-0.41483 -1.86564,-1.42338 -2.03974,-1.9719 -0.0535,-0.1684 -0.4901,-0.64541 -0.97034,-1.06002 -0.48023,-0.4146 -0.98956,-0.98152 -1.13185,-1.25982 -0.41207,-0.806 -1.34302,-1.75251 -2.0256,-2.05947 -0.34612,-0.15565 -0.97067,-0.6023 -1.38792,-0.99258 -0.41724,-0.39027 -0.82673,-0.70961 -0.90998,-0.70961 -0.0833,0 -0.50231,-0.27741 -0.93126,-0.61646 -0.964574,-0.76247 -1.533136,-1.05595 -2.323009,-1.1991 -0.581028,-0.10531 -0.95253,-0.25028 -2.924374,-1.14123 -0.460514,-0.20806 -1.077076,-0.37831 -1.370148,-0.37831 -0.764504,0 -2.778475,-0.47158 -3.430472,-0.80326 -0.851956,-0.43341 -2.001017,-1.71203 -2.489392,-2.77006 -0.381647,-0.82683 -0.440273,-1.15251 -0.44312,-2.46164 -0.0031,-1.43566 0.02551,-1.5643 0.591137,-2.65617 0.326927,-0.63109 0.597552,-1.31003 0.601385,-1.50874 0.0038,-0.19871 0.115386,-0.64716 0.247893,-0.99655 0.240232,-0.63346 0.416119,-1.22997 0.983374,-3.33511 0.16476,-0.61143 0.442973,-1.4357 0.618251,-1.83174 0.175276,-0.39602 0.368875,-0.98756 0.430218,-1.31455 0.06134,-0.32696 0.566798,-1.57597 1.123245,-2.77555 0.556445,-1.19957 1.062379,-2.3947 1.124302,-2.65582 0.201069,-0.8479 2.455912,-5.38446 2.919829,-5.87445 0.248092,-0.26205 0.569012,-0.69084 0.713151,-0.95289 0.144139,-0.26204 0.478181,-0.76231 0.742319,-1.1117 0.264139,-0.34939 0.825949,-1.35539 1.248475,-2.23555 0.497605,-1.03655 1.110446,-1.99692 1.739706,-2.72624 0.76373,-0.88516 1.19169,-1.61096 2.00116,-3.39386 l 1.02967,-2.26791 v -1.85324 c 0,-1.85244 -0.42094,-4.29593 -1.02426,-5.94567 -0.12777,-0.3494 -0.23545,-0.7853 -0.23929,-0.96866 -0.004,-0.18337 -0.24841,-0.79084 -0.54351,-1.34993 -0.2951,-0.5591 -0.61645,-1.39409 -0.71412,-1.85554 -0.0977,-0.46146 -0.31083,-1.10466 -0.47372,-1.42933 -0.62937,-1.25451 -0.816649,-2.73741 -0.816649,-6.46644 0,-3.76119 0.186639,-5.21141 0.837489,-6.50731 0.71723,-1.42805 0.97046,-4.47938 0.52095,-6.27726 -0.12012,-0.48042 -0.46751,-1.33802 -0.77197,-1.90577 -0.30447,-0.56777 -0.60055,-1.25618 -0.65796,-1.52982 -0.05741,-0.27364 -0.340177,-0.77391 -0.628375,-1.1117 -0.288199,-0.33779 -1.010988,-1.61393 -1.60621,-2.83586 -0.901317,-1.85031 -1.270227,-2.42349 -2.207025,-3.42907 -1.268128,-1.36124 -2.088723,-2.62179 -2.317833,-3.56049 -0.08526,-0.34939 -0.234112,-0.84966 -0.330756,-1.1117 -0.423097,-1.14723 -0.768601,-2.94885 -0.773609,-4.03393 -0.01005,-2.17395 0.81969,-5.03399 1.6636,-5.73438 0.14609,-0.12124 0.644132,-0.97457 1.106764,-1.89628 0.462631,-0.92171 0.999743,-1.81876 1.193575,-1.99345 0.193833,-0.1747 0.480796,-0.56777 0.637695,-0.87349 0.156893,-0.30572 0.795526,-1.02038 1.419181,-1.58815 1.002243,-0.9124 2.622723,-2.50528 4.846983,-4.76443 0.387,-0.39307 1.84736,-1.83618 3.24525,-3.20692 1.39789,-1.37074 2.7342,-2.80007 2.96961,-3.17629 0.2354,-0.37622 0.63193,-0.91879 0.8812,-1.2057 0.4438,-0.51086 0.45307,-0.56027 0.44753,-2.38221 -0.006,-1.93966 -0.22619,-3.23025 -0.71131,-4.16707 -0.48215,-0.93109 -1.48368,-4.90304 -1.50076,-5.95183 -0.005,-0.3494 -0.0986,-0.78978 -0.20653,-0.97864 -1.63414,-2.86021 -2.66982,-4.79668 -3.96391,-7.41152 -1.1924,-2.40938 -1.74289,-3.34416 -2.34312,-3.97882 -0.53269,-0.56324 -1.06658,-1.41313 -1.66308,-2.64745 -0.483195,-0.99985 -0.879194,-1.93334 -0.879993,-2.07441 -9.92e-4,-0.14109 -0.162259,-0.46092 -0.358791,-0.71073 -0.550684,-0.69998 -2.486321,-4.65784 -2.589556,-5.29494 -0.05052,-0.31177 -0.192532,-0.816995 -0.315583,-1.122703 -0.719544,-1.787649 -0.918141,-4.884992 -0.449351,-7.008053 0.298607,-1.352326 1.176314,-3.371392 1.716884,-3.949507 0.204518,-0.218725 0.524495,-0.683535 0.711067,-1.032934 0.590135,-1.105151 1.445986,-2.232207 3.801253,-5.005804 0.2927,-0.344689 0.92365,-1.503403 1.40211,-2.574887 0.47846,-1.071494 0.96336,-2.055379 1.07755,-2.186399 0.11419,-0.131019 0.38672,-0.595548 0.6056,-1.032296 0.21888,-0.436738 0.5585,-0.936997 0.75469,-1.111697 0.77645,-0.691366 1.0234,-2.227551 0.54334,-3.379904 -0.30143,-0.723586 -1.2306,-1.709178 -1.97743,-2.097504 -0.3057,-0.158973 -1.13617,-0.921184 -1.84545,-1.693797 -0.70928,-0.772624 -1.59592,-1.583441 -1.97032,-1.80181 -0.374394,-0.218369 -1.07095,-0.754359 -1.547899,-1.191107 -0.747405,-0.6844 -1.06569,-1.188926 -2.304324,-3.652733 l -1.437141,-2.858658 -0.06901,-2.216145 c -0.07962,-2.556774 0.188121,-4.19179 0.927456,-5.663784 0.487467,-0.970535 0.941235,-2.692811 0.941235,-3.572457 0,-0.304639 -0.105161,-0.757235 -0.233682,-1.005768 -0.12852,-0.248543 -0.283433,-0.763057 -0.34425,-1.14338 -0.06082,-0.380323 -0.770305,-2.061225 -1.57664,-3.735347 -0.806336,-1.674123 -1.544035,-3.407394 -1.639322,-3.851721 -0.09529,-0.444327 -0.475913,-1.397319 -0.845828,-2.117755 l -0.672573,-1.309893 -0.104437,-3.573319 c -0.05743,-1.965332 -0.193887,-3.930664 -0.303225,-4.3674 -0.118879,-0.474844 -0.47968,-1.159121 -0.897496,-1.702131 -0.91347,-1.187183 -3.001173,-5.277996 -3.150626,-6.173591 -0.06428,-0.385143 -0.302753,-1.057587 -0.529957,-1.494333 -0.375228,-0.721275 -0.418606,-0.997238 -0.473191,-3.010208 -0.04561,-1.682464 0.0058,-2.523849 0.213781,-3.493918 0.270203,-1.2606653 0.710434,-2.3516752 1.028148,-2.5480376 0.08961,-0.055421 0.404044,-0.4711621 0.698744,-0.9239557 0.885768,-1.3609623 2.251777,-2.5666491 3.669078,-3.2384887 l 1.270515,-0.6022472 3.414511,-0.05271 c 3.917783,-0.060476 5.163273,0.1205344 7.050093,1.0247671 0.61594,0.2951893 1.21409,0.5367009 1.32922,0.5367009 0.72413,0 4.18991,2.9381536 4.75255,4.0290285 0.14103,0.2734551 0.73695,1.0331802 1.32426,1.6882937 0.58732,0.655104 1.18299,1.417845 1.32371,1.694964 0.14074,0.277119 0.54277,0.835328 0.89341,1.240473 0.35065,0.405137 0.63753,0.803521 0.63753,0.885306 0,0.259537 1.14784,1.430807 1.65563,1.689423 0.72109,0.367261 2.44822,1.920887 2.72029,2.447035 0.12994,0.251268 0.50756,0.595262 0.83916,0.764429 0.3316,0.169167 0.70054,0.425219 0.81988,0.569014 0.11933,0.143793 0.50762,0.406399 0.86286,0.583581 0.35523,0.177173 1.04467,0.711572 1.5321,1.187554 0.73891,0.721554 1.04121,0.901444 1.81849,1.082128 0.88506,0.205741 0.96884,0.198213 1.6548,-0.148822 1.75833,-0.88953 4.82439,-1.105199 6.1426,-0.43207 1.45216,0.741529 2.98382,3.19241 3.45305,5.525383 0.16164,0.803611 0.26146,2.114831 0.26602,3.493918 l 0.008,2.207555 0.44368,-0.958056 c 0.24404,-0.526925 0.65965,-1.205858 0.92358,-1.508738 0.56029,-0.642928 0.99746,-1.447099 1.00736,-1.85301 0.003,-0.157199 0.11533,-0.571677 0.24776,-0.921077 0.23191,-0.611878 0.35176,-1.297951 0.68379,-3.914578 0.12044,-0.949102 0.32598,-1.556865 0.93991,-2.77925 0.43217,-0.860493 0.94432,-1.707456 1.1381,-1.882147 0.19381,-0.1747 0.48471,-0.576929 0.64646,-0.893844 0.45351,-0.888565 1.55204,-1.748254 4.01034,-3.138398 2.58157,-1.459862 4.0118,-2.132658 5.03182,-2.367055 0.39307,-0.09032 1.21493,-0.346783 1.82636,-0.569909 0.61144,-0.223133 1.50477,-0.482181 1.98519,-0.575674 0.79797,-0.155285 1.66314,-0.515299 3.66391,-1.52466 0.39921,-0.2013892 1.364,-0.5745733 2.14399,-0.8292893 0.77998,-0.2547161 1.66829,-0.5751696 1.97402,-0.7121132 0.3057,-0.1369435 1.05028,-0.3961648 1.65458,-0.5760455 0.99794,-0.2970569 1.50794,-0.3265637 5.55851,-0.3216351 5.3071,0.00626 5.80472,0.09423 8.88536,1.5674518 2.05941,0.9848453 2.94497,1.6302113 4.97213,3.6235053 1.75669,1.727349 2.13849,1.791453 10.67004,1.791453 7.38575,0 6.51811,-0.07401 11.28239,0.961829 0.47178,0.102558 1.47086,0.46839 2.22017,0.812935 0.7493,0.344543 1.72117,0.702951 2.15969,0.796452 0.43852,0.09351 1.15464,0.325924 1.59139,0.516482 0.43674,0.190568 1.33006,0.43337 1.98518,0.53958 0.65511,0.106209 1.79857,0.316175 2.54103,0.466613 0.74246,0.150429 1.81445,0.258516 2.38221,0.240192 0.56777,-0.01832 2.24722,-0.0788 3.73214,-0.134451 2.83672,-0.106252 3.9125,0.01525 5.00266,0.565132 0.30572,0.154201 1.12758,0.405524 1.82637,0.558489 0.69878,0.152974 1.59211,0.437413 1.98517,0.632079 0.39307,0.194665 1.21494,0.438199 1.82637,0.541186 0.61144,0.10298 1.50907,0.255655 1.99474,0.339273 0.48567,0.08367 1.10336,0.152044 1.3726,0.152044 0.26927,0 1.43396,0.214397 2.58821,0.476442 1.15424,0.262045 2.57338,0.479583 3.1536,0.483419 0.58024,0.0036 1.34085,0.115047 1.69024,0.247143 1.21041,0.457641 1.59393,0.552794 2.80759,0.696598 1.76047,0.208584 5.23619,1.861676 6.48305,3.083411 2.59578,2.543443 3.24539,3.26989 3.70645,4.144816 0.48323,0.916997 0.50208,1.024678 0.5004,2.858661 -0.002,1.750385 -0.0378,1.983475 -0.44499,2.858662 -0.24378,0.52409 -0.6718,1.191416 -0.95117,1.48295 -0.5155,0.538018 -1.51446,1.137486 -1.89548,1.137486 -0.25419,0 -0.92354,0.626817 -1.83149,1.715065 -0.48586,0.582336 -1.07112,1.023883 -2.06459,1.557622 -0.76259,0.409695 -1.60093,0.936945 -1.86296,1.171659 -0.68641,0.614812 -1.1506,0.857758 -6.39086,3.344897 -2.59938,1.233721 -5.86963,2.786562 -7.26719,3.450753 -2.70626,1.286158 -3.56571,1.880518 -4.39789,3.041436 -0.8656,1.207536 -1.58123,1.923604 -2.26149,2.262893 -0.35535,0.177238 -1.03915,0.697901 -1.51957,1.157029 -0.48041,0.45914 -1.55241,1.212883 -2.38222,1.674993 -0.8298,0.462109 -1.72313,1.03909 -1.98518,1.282194 -0.57744,0.535688 -7.21648,3.73143 -8.07732,3.88807 -0.33717,0.06135 -0.92086,0.283587 -1.2971,0.493865 -0.80672,0.450888 -2.36801,0.695384 -5.09985,0.79859 l -1.92793,0.0728 -0.0832,1.615261 c -0.10671,2.073872 -0.36042,3.799533 -0.64007,4.354112 -0.12132,0.240608 -0.26983,0.759057 -0.33003,1.152125 -0.11058,0.721966 -1.14589,2.828706 -1.67799,3.414501 -0.26901,0.296148 -1.11007,2.01805 -4.98865,10.213062 -1.49718,3.163404 -1.52644,3.247524 -1.52644,4.389248 0,1.139704 0.0295,1.225044 1.40954,4.080246 1.13613,2.350545 1.55379,3.05484 2.15321,3.630881 0.90725,0.871844 1.96215,2.727995 2.09302,3.682685 0.11231,0.81945 -0.16869,2.34863 -0.57817,3.14634 -0.4782,0.93158 -1.26266,1.53392 -3.17183,2.43542 -1.0045,0.47432 -1.9693,1.02153 -2.14399,1.21604 -0.1747,0.19449 -0.74643,0.56954 -1.27051,0.83341 -0.52409,0.26387 -1.18765,0.68486 -1.47457,0.93552 l -0.52167,0.45575 h 1.14108 c 2.62725,0 5.40773,1.00476 6.8107,2.46115 0.39307,0.40803 1.05087,0.91408 1.46179,1.12453 0.42876,0.21964 1.78223,1.38237 3.17629,2.72874 1.33605,1.29032 2.69617,2.46834 3.02252,2.61781 0.32635,0.14947 0.9813,0.57713 1.45548,0.95034 0.47415,0.37322 1.18435,0.87716 1.57822,1.11989 0.39387,0.2427 1.06103,0.75074 1.48258,1.12896 0.42157,0.37823 0.92097,0.73633 1.10979,0.79578 0.18882,0.0595 0.8177,0.41967 1.39754,0.8005 0.57983,0.38083 1.28295,0.7776 1.56247,0.88169 0.27954,0.10413 0.93704,0.35328 1.46113,0.55373 0.52409,0.20045 1.70329,0.51972 2.62044,0.7095 1.58066,0.32706 3.80044,0.93639 4.84384,1.32963 0.26204,0.0987 0.88691,0.53878 1.3886,0.97782 0.50169,0.43904 1.20467,1.04438 1.56217,1.34521 0.40718,0.34264 0.89701,1.02488 1.31123,1.82636 l 0.66125,1.27942 -0.0109,3.73214 c -0.013,4.46502 -0.36894,8.38481 -0.91566,10.08472 -0.63925,1.98754 -0.78091,2.4751 -1.13057,3.89094 -0.20494,0.82981 -0.60275,2.08048 -0.88404,2.77926 -0.28129,0.69879 -0.71463,1.77078 -0.96298,2.38222 -0.43856,1.07975 -0.45353,1.21205 -0.52184,4.60562 -0.0952,4.72645 -0.27711,5.89293 -1.37515,8.8142 -0.27907,0.74246 -0.66895,1.77873 -0.86639,2.3028 -0.19743,0.5241 -0.78947,1.85587 -1.31561,2.95951 -0.52615,1.10363 -1.00881,2.2471 -1.07262,2.54104 -0.0638,0.29391 -0.59615,1.57067 -1.18305,2.83722 -1.18548,2.5583 -1.53022,3.847 -1.36882,5.11692 0.0585,0.46124 0.16853,1.48183 0.24427,2.26795 0.21091,2.18897 0.33011,2.66027 0.80347,3.17629 0.24037,0.26205 0.52742,0.65511 0.63785,0.87348 0.23921,0.47293 0.68138,1.01894 2.42102,2.98954 0.71898,0.81445 1.45018,1.65622 1.62488,1.87062 0.17469,0.21441 0.72257,0.8772 1.2175,1.47289 0.51824,0.62372 1.30204,1.88466 1.84813,2.97321 0.52153,1.03958 1.08985,2.01779 1.26294,2.17382 0.17309,0.156 0.54463,0.76346 0.8256,1.34992 0.28102,0.58644 0.68132,1.35214 0.88959,1.70153 0.20827,0.34939 0.42615,0.95685 0.48415,1.34992 0.058,0.39306 0.34437,1.19199 0.63635,1.77539 0.29198,0.58339 0.57937,1.36399 0.63864,1.73463 0.0593,0.37066 0.40406,1.25457 0.76617,1.96425 1.00515,1.96987 1.23487,3.34239 1.17115,6.99708 l -0.0525,3.01306 -0.70637,1.31178 c -0.5496,1.0206 -1.02907,1.61983 -2.16028,2.69984 -0.79965,0.76344 -1.8039,1.61678 -2.23169,1.89632 -1.57728,1.03068 -3.65962,2.07896 -4.46983,2.25018 -0.45835,0.0969 -1.28849,0.38248 -1.84476,0.6347 -0.55626,0.25222 -1.93218,0.65134 -3.05759,0.88691 -1.1254,0.23558 -2.4047,0.59278 -2.84286,0.79377 -1.53993,0.70638 -3.18754,0.91158 -6.51373,0.81122 -1.65689,-0.05 -5.47813,-0.1539 -8.49164,-0.23089 -5.82809,-0.1489 -8.10618,-0.32728 -9.13183,-0.71501 -1.18923,-0.44959 -4.61726,-0.24469 -5.72815,0.3424 -0.429,0.2267 -4.16176,0.99164 -4.8391,0.99164 -0.61079,0 -4.99689,2.12841 -5.71123,2.77144 -0.21836,0.19658 -0.82584,0.59473 -1.34992,0.88479 -0.91948,0.50891 -1.37973,0.8483 -2.8211,2.08039 -0.37005,0.31633 -1.56615,0.99054 -2.658,1.49826 -1.09185,0.50773 -2.16385,1.08048 -2.38222,1.27279 -0.21837,0.19234 -0.64717,0.47403 -0.95289,0.62601 -0.30572,0.15198 -0.99362,0.67827 -1.52867,1.16953 -1.53927,1.41333 -2.41354,2.00085 -4.51959,3.03735 -1.08266,0.53283 -2.11218,1.09836 -2.28781,1.25671 -0.17562,0.15836 -0.46225,0.36241 -0.63694,0.45349 -0.3201,0.16688 -2.00961,1.74275 -4.20858,3.92552 -1.18041,1.17172 -3.45646,3.65299 -4.56624,4.97795 -0.3231,0.38575 -0.99892,0.90771 -1.53859,1.18834 l -0.96242,0.50044 -3.49392,0.1094 c -4.01414,0.12571 -6.35696,0.32637 -7.94066,0.68012 -0.61141,0.13656 -1.33592,0.2483 -1.61002,0.2483 -0.80967,0 -2.48201,0.86889 -2.82466,1.46757 -0.16292,0.28469 -0.42766,0.66388 -0.5883,0.84266 -0.16065,0.17878 -0.82341,1.3978 -1.47281,2.70895 -1.69123,3.41454 -2.75847,4.72471 -4.60494,5.6531 -1.56005,0.78437 -2.63889,0.91737 -3.83346,0.47256 z M 84.786084,214.44049 c -0.06701,-0.067 -1.067537,-0.16809 -2.223402,-0.22462 -2.052752,-0.10046 -2.13109,-0.11776 -3.37209,-0.74691 -1.332036,-0.6753 -2.348425,-1.62917 -3.372562,-3.16508 -1.038785,-1.55787 -1.485754,-2.59122 -1.627361,-3.76228 -0.157597,-1.3033 -0.559484,-2.45358 -1.168025,-3.34308 -0.232288,-0.33953 -0.498652,-0.91126 -0.591917,-1.27052 -0.09327,-0.35924 -0.369836,-0.93903 -0.614599,-1.28842 -0.244764,-0.34939 -0.646191,-1.02833 -0.89206,-1.50874 -0.841391,-1.64403 -0.667489,-4.99036 0.367269,-7.06724 0.683365,-1.3716 2.215488,-2.92899 3.670186,-3.73071 0.71005,-0.39132 1.291,-0.79638 1.291,-0.90014 0,-0.1038 -0.181242,-0.40402 -0.402761,-0.66729 -0.605288,-0.71933 -1.429423,-2.64356 -1.738465,-4.05901 -0.46465,-2.12816 -0.340155,-2.79363 1.114469,-5.95716 1.346128,-2.92756 2.037229,-3.92032 3.11018,-4.46771 1.207467,-0.616 2.838503,-0.54553 4.293721,0.1855 0.319228,0.16035 1.212559,0.98219 1.985181,1.82629 0.772622,0.84409 2.691185,2.82931 4.263476,4.41159 1.855226,1.86702 2.962089,3.10797 3.153208,3.53521 0.221258,0.49461 0.458233,0.7316 0.952837,0.95289 1.043281,0.46679 1.825447,1.28896 2.538186,2.66799 l 0.661186,1.27929 -0.02685,2.54104 c -0.01474,1.39756 -0.0744,3.86284 -0.132536,5.47838 -0.13932,3.87147 0.149217,5.31317 1.271534,6.35329 0.235626,0.21837 0.653074,0.82584 0.92766,1.34993 0.457971,0.87411 0.499223,1.07762 0.49897,2.46163 -3.17e-4,1.45898 -0.02209,1.55103 -0.662341,2.79228 -0.513636,0.99579 -0.905004,1.49816 -1.745703,2.24088 -0.596001,0.52655 -1.298204,1.06723 -1.560456,1.20152 -0.262248,0.13431 -0.61958,0.40252 -0.794072,0.59603 -0.174489,0.19352 -1.174851,0.78894 -2.223026,1.32316 l -1.905774,0.9713 -2.461624,0.0563 c -1.353894,0.031 -2.516447,0.002 -2.583453,-0.0656 z M 83.080519,93.697907 c -0.786095,-0.257782 -1.360923,-0.642728 -2.086185,-1.397043 -1.11308,-1.157678 -1.291461,-1.619409 -1.400628,-3.625492 -0.0845,-1.552647 -0.151473,-1.855924 -0.602198,-2.726645 -0.623848,-1.20517 -0.835331,-2.274709 -0.93678,-4.73763 -0.06466,-1.569659 -0.02029,-2.152494 0.251494,-3.304717 0.382624,-1.622044 0.651573,-2.21352 1.332975,-2.931468 0.466928,-0.491965 0.481596,-0.545485 0.282964,-1.032297 -0.640854,-1.570609 -0.681476,-1.792143 -0.618366,-3.372084 0.05254,-1.315051 0.133639,-1.724689 0.471696,-2.382214 0.224543,-0.436738 0.46152,-1.044211 0.526616,-1.349929 0.285864,-1.342541 1.13552,-2.352436 2.620624,-3.114831 0.712343,-0.365698 1.078565,-0.448576 1.985182,-0.449267 1.995215,-0.0022 2.883299,0.736602 4.193025,3.484979 0.615713,1.292055 1.070642,2.033874 1.412213,2.302814 1.21762,0.958719 1.435261,1.098184 1.872576,1.200062 0.802157,0.186872 2.497408,1.193354 3.295157,1.956364 1.310374,1.253323 2.1689,3.474869 1.952633,5.052704 -0.104351,0.761369 -0.573513,1.781698 -0.970881,2.111481 -0.142438,0.11822 -0.446776,0.542234 -0.676307,0.942258 -0.229526,0.400035 -0.636345,0.993736 -0.904027,1.31935 -0.267691,0.325615 -0.697185,0.851646 -0.954435,1.168976 -0.257254,0.31733 -0.7288,0.741754 -1.047878,0.943186 -0.489644,0.30911 -0.782091,0.777473 -1.87478,3.002594 -0.712049,1.450002 -1.29464,2.70946 -1.29464,2.798808 0,0.882094 -1.938738,2.779041 -3.801611,3.719657 -0.913114,0.461062 -2.312191,0.655268 -3.028439,0.420384 z"
       id="path845" />
  </g>
</svg>
