<?xml version="1.0" encoding="UTF-8" standalone="no"?>
<!-- Created with Inkscape (http://www.inkscape.org/) -->

<svg
   version="1.1"
   id="svg2"
   width="300"
   height="300"
   viewBox="0 0 300 300"
   sodipodi:docname="Ikessh_Outline.svg"
   inkscape:version="1.1.1 (3bf5ae0d25, 2021-09-20)"
   xmlns:inkscape="http://www.inkscape.org/namespaces/inkscape"
   xmlns:sodipodi="http://sodipodi.sourceforge.net/DTD/sodipodi-0.dtd"
   xmlns="http://www.w3.org/2000/svg"
   xmlns:svg="http://www.w3.org/2000/svg">
  <defs
     id="defs6" />
  <sodipodi:namedview
     id="namedview4"
     pagecolor="#505050"
     bordercolor="#eeeeee"
     borderopacity="1"
     inkscape:pageshadow="0"
     inkscape:pageopacity="0"
     inkscape:pagecheckerboard="0"
     showgrid="false"
     inkscape:zoom="2.964215"
     inkscape:cx="120.60529"
     inkscape:cy="127.68979"
     inkscape:window-width="3440"
     inkscape:window-height="1369"
     inkscape:window-x="-8"
     inkscape:window-y="-8"
     inkscape:window-maximized="1"
     inkscape:current-layer="g8" />
  <g
     inkscape:groupmode="layer"
     inkscape:label="Image"
     id="g8">
    <path
       style="fill:#000000;stroke-width:0.999995"
       d="m 33.821938,225.99947 c -1.573358,-0.38609 -2.089438,-0.67118 -3.079984,-1.7014 -1.271534,-1.32249 -1.459114,-1.80134 -1.458544,-3.72347 3.4e-4,-1.39906 0.06383,-1.77726 0.405197,-2.41779 0.79583,-1.49311 1.632872,-2.18888 3.825645,-3.17997 1.121586,-0.50695 2.292759,-1.09375 2.602617,-1.30403 0.309859,-0.21028 1.217919,-0.59074 2.017936,-0.84547 1.267092,-0.40347 1.791666,-0.46846 4.070032,-0.50417 2.266316,-0.0356 2.697021,0.002 3.226486,0.28407 1.495909,0.79581 2.412112,2.13549 2.568795,3.75614 0.05497,0.56896 0.223599,1.12831 0.401107,1.33069 0.687264,0.78363 0.948883,1.55451 0.947937,2.79325 -0.0011,1.50951 -0.546758,2.68903 -1.883982,4.07276 -1.6586,1.7163 -2.902404,2.048 -5.350826,1.42697 -1.847491,-0.46859 -1.799774,-0.46825 -3.007098,-0.0213 -1.242469,0.45991 -3.490301,0.47426 -5.285318,0.0337 z m 41.635536,-12.90984 c -0.913813,-0.29966 -1.554251,-0.73586 -2.266303,-1.54355 -0.749936,-0.85067 -1.398694,-1.94558 -1.398694,-2.36061 0,-0.12656 -0.289833,-0.81709 -0.644091,-1.53451 -0.553232,-1.12041 -0.644929,-1.47678 -0.650054,-2.52645 -0.0058,-1.35764 0.263564,-2.04909 1.182746,-3.02675 0.906818,-0.96448 1.7724,-1.3273 3.166505,-1.3273 2.179205,0 3.154042,0.8013 4.766033,3.91761 1.154802,2.23248 1.526423,3.4941 1.368518,4.64606 -0.195125,1.42367 -1.142427,2.74258 -2.455796,3.41917 -0.748543,0.38559 -2.375042,0.56385 -3.068864,0.33633 z m -19.02893,-0.87289 c -0.80597,-0.2643 -1.478417,-0.68575 -2.0306,-1.27264 -0.914771,-0.97228 -1.18872,-1.66973 -1.18872,-3.02635 0,-1.3565 0.273779,-2.05362 1.18872,-3.02675 0.906811,-0.96448 1.772385,-1.3273 3.16649,-1.3273 1.394104,0 2.259687,0.36282 3.166494,1.3273 0.914934,0.97313 1.18872,1.67025 1.18872,3.02675 0,1.7673 -0.845423,3.15035 -2.42223,3.96266 -0.748542,0.3856 -2.375042,0.56387 -3.068874,0.33633 z M 40.979601,208.2118 c -1.312529,-0.48993 -1.864457,-0.81588 -2.468192,-1.45755 -0.914771,-0.97229 -1.18872,-1.66973 -1.18872,-3.02635 0,-1.76788 0.830816,-3.12651 2.434866,-3.98175 0.706767,-0.37682 0.676088,-0.37472 3.884346,-0.26619 0.770187,0.0261 2.838959,-0.53188 3.709762,-1.0005 0.884614,-0.47605 2.819991,-0.45302 3.753414,0.0446 1.604499,0.85548 2.435121,2.21412 2.434284,3.98174 -5.45e-4,1.4996 -0.396373,2.34181 -1.597739,3.40093 -1.064925,0.93882 -1.796983,1.30794 -3.106052,1.56617 -0.576102,0.11358 -1.518822,0.36966 -2.094924,0.56894 -1.520459,0.52595 -4.566585,0.61578 -5.761045,0.16991 z m 42.118336,-4.11066 c -1.503457,-0.56107 -2.862299,-1.8198 -3.498391,-3.24062 -1.55084,-3.46407 -1.434998,-3.04175 -1.434998,-5.23189 0,-2.23062 0.152809,-2.71934 1.197937,-3.83092 0.906408,-0.96406 1.772438,-1.32722 3.166494,-1.32789 2.426274,-9.8e-4 4.191025,1.66737 4.407771,4.16743 0.09198,1.06177 0.38231,1.76555 1.186079,2.87588 1.491297,2.06011 0.655705,5.10231 -1.740529,6.33672 -0.87706,0.45182 -2.428875,0.57055 -3.284363,0.25129 z m -18.115096,-1.13699 c -1.281245,-0.42015 -2.316824,-1.32386 -2.925818,-2.55322 -0.519909,-1.04954 -1.149482,-4.17724 -1.024452,-5.08945 0.194219,-1.41697 1.134194,-2.72303 2.467489,-3.42844 0.883111,-0.46724 2.66768,-0.51418 3.670492,-0.0966 0.381666,0.15894 0.968328,0.3924 1.303684,0.51881 2.04408,0.77046 3.277367,3.38829 2.539123,5.38968 -0.159395,0.43209 -0.389159,1.17841 -0.510594,1.65849 -0.398708,1.57611 -1.223026,2.6543 -2.535655,3.31654 -0.6764,0.34126 -2.329977,0.49871 -2.984269,0.28414 z m 60.317539,-11.54744 c -2.20026,-0.13911 -3.2018,-0.34157 -4.80087,-0.97047 -2.08942,-0.82177 -3.2218,-1.43124 -4.31897,-2.3246 -0.59911,-0.48782 -1.54183,-1.05141 -2.09493,-1.25243 -2.73183,-0.99287 -4.27304,-1.42463 -5.56781,-1.55984 -2.04705,-0.21374 -3.26974,-0.87399 -5.04812,-2.72592 -0.97001,-1.01014 -1.53054,-1.4633 -1.81005,-1.4633 -0.5569,0 -3.215117,0.50586 -4.361939,0.83009 -0.731822,0.20689 -1.503697,0.24567 -3.444115,0.17305 l -2.500909,-0.0937 -0.745727,0.64908 c -0.410147,0.35698 -1.334932,0.98308 -2.055052,1.39131 -0.72013,0.40825 -1.621919,0.92888 -2.003956,1.15696 -1.044621,0.62367 -2.81478,0.89112 -4.062156,0.61373 -1.257743,-0.2797 -2.57385,-0.92652 -3.337358,-1.64021 -0.333923,-0.31215 -0.913326,-1.24581 -1.342961,-2.16411 -0.415613,-0.8883 -1.102946,-2.06669 -1.527426,-2.61866 -0.42448,-0.55195 -1.046979,-1.55348 -1.383318,-2.2256 -0.630119,-1.25918 -1.356465,-4.10494 -1.356465,-5.31449 0,-0.65469 -0.04034,-0.70093 -1.155338,-1.32447 -0.635448,-0.35537 -1.734487,-1.19624 -2.442331,-1.86862 -1.19666,-1.1367 -1.564608,-1.62372 -2.500451,-3.30948 -0.204177,-0.36782 -0.787332,-0.92945 -1.359456,-1.30932 l -1.001886,-0.66522 -2.535139,-0.0961 c -2.806312,-0.10643 -3.013286,-0.1711 -4.717344,-1.47509 -0.528103,-0.40411 -1.195852,-0.85799 -1.483902,-1.0086 -1.057889,-0.55313 -2.592548,-2.4176 -4.556139,-5.53527 -0.663103,-1.05285 -1.468217,-4.79653 -1.464843,-6.81129 0.0036,-2.35866 0.541079,-3.7215 1.953701,-4.95723 2.072984,-1.8134 4.177023,-2.48187 6.421744,-2.04024 1.227996,0.24159 3.56304,1.31244 4.77149,2.1882 1.158241,0.83937 1.65042,0.94259 5.443593,1.14163 3.993551,0.20954 4.347575,0.25469 5.718636,0.72918 l 1.07278,0.37126 0.444991,-0.58441 c 1.323102,-1.7376 2.403453,-2.84058 3.489572,-3.56262 0.667447,-0.44371 1.265265,-0.96978 1.328511,-1.16902 0.06324,-0.19926 0.06275,-0.85019 -9.74e-4,-1.44652 -0.202472,-1.89059 -1.394378,-3.22506 -3.217425,-3.6023 -0.538977,-0.11153 -1.591646,-0.50997 -2.339233,-0.88542 -1.891448,-0.94988 -4.579726,-3.64597 -5.436812,-5.45253 -0.671968,-1.4164 -1.147261,-3.34139 -1.147261,-4.64655 0,-0.4899 -0.116504,-1.11608 -0.258965,-1.39151 -0.511939,-0.98998 -1.160706,-3.25774 -1.260042,-4.4044 -0.115891,-1.33823 0.16756,-3.04287 0.669726,-4.02721 0.186843,-0.36623 0.903962,-1.2599 1.593605,-1.98592 1.299728,-1.36826 2.059271,-1.83313 5.251313,-3.21397 1.53831,-0.66545 2.212547,-1.33332 4.749625,-4.70472 l 1.379431,-1.83306 0.214934,-1.7836 c 0.232531,-1.92953 0.492636,-2.61102 1.340573,-3.51226 1.145847,-1.21788 2.487902,-1.59504 5.685556,-1.59787 1.824675,-9.7e-4 2.579463,-0.0765 3.404258,-0.33767 0.582872,-0.18459 1.531129,-0.45175 2.107229,-0.59368 1.1826,-0.29136 3.02515,-0.81071 4.451721,-1.25476 0.528088,-0.16439 2.099284,-0.56268 3.491544,-0.8851 1.39225,-0.32242 2.69426,-0.6592 2.89336,-0.74841 0.1991,-0.0891 1.02397,-0.29589 1.83307,-0.45932 0.80908,-0.16343 1.5889,-0.3962 1.73293,-0.51728 1.64127,-1.37973 4.1929,-1.95695 6.4944,-1.46912 1.27421,0.27008 2.01261,0.68271 2.93276,1.63895 1.32021,1.37195 2.62285,2.26292 3.92226,2.68269 0.66898,0.21609 1.57241,0.57907 2.00764,0.80659 0.43524,0.22752 1.06571,0.51485 1.40106,0.6385 0.9114,0.33607 1.88314,1.30634 2.49747,2.4937 1.07752,2.08259 0.6385,4.31485 -1.2265,6.23634 -0.66616,0.68634 -0.77408,0.89167 -0.68816,1.30934 0.34702,1.68676 1.72032,7.65624 1.7736,7.70954 0.0355,0.0355 0.61568,-0.0611 1.28951,-0.21432 1.44567,-0.32881 5.13367,-0.37554 6.5159,-0.0825 0.50882,0.10788 1.23222,0.35149 1.60756,0.54145 0.73819,0.37357 3.35784,0.95055 4.66833,1.02823 0.64737,0.0384 0.93021,-0.0421 1.39662,-0.39721 0.91183,-0.69426 1.8522,-1.12109 4.09583,-1.85903 3.72828,-1.22626 5.03059,-1.31657 6.71041,-0.46533 1.00477,0.50915 2.92531,0.59679 3.92497,0.1791 0.72398,-0.30249 0.74596,-0.5147 0.24526,-2.36569 -0.91829,-3.39469 -0.89683,-3.20652 -0.72579,-6.36699 0.14257,-2.63395 0.21217,-3.08237 0.6105,-3.93307 0.24729,-0.52809 0.55141,-1.23455 0.67583,-1.56991 0.2935,-0.79106 1.2685,-1.86308 2.05721,-2.26193 1.06255,-0.5373 2.36484,-0.7073 5.38875,-0.70345 5.47724,0.007 7.78937,0.45606 11.65543,2.26385 2.25074,1.05247 2.8988,1.75265 4.68748,5.06468 0.58558,1.08427 2.49942,3.17982 5.26669,5.76672 2.66964,2.49562 4.39948,5.08955 4.94523,7.41551 0.15817,0.67405 0.33813,0.9656 0.78495,1.27178 0.50678,0.34726 0.67617,0.37649 1.34565,0.23224 0.42123,-0.0908 1.43364,-0.21918 2.2498,-0.2854 0.81614,-0.0662 1.95525,-0.22495 2.53136,-0.35273 0.5761,-0.12777 2.22177,-0.3213 3.65705,-0.43006 1.43527,-0.10873 2.68074,-0.24171 2.76771,-0.29547 0.087,-0.0538 0.68025,-0.23772 1.3184,-0.40881 0.63815,-0.17108 1.74948,-0.47905 2.46962,-0.68435 4.29104,-1.22335 4.60544,-1.24703 8.10777,-0.61039 1.34978,0.24534 3.12189,0.56813 3.93805,0.71728 2.04901,0.37449 3.40974,1.02541 4.34923,2.08052 1.10339,1.23921 2.35098,3.9659 2.78918,6.09598 0.19751,0.96017 0.68045,2.64921 1.07316,3.75342 1.7,4.77995 2.10353,5.98912 2.28701,6.85269 0.47323,2.22742 3.31177,6.23242 5.04333,7.11579 0.3562,0.18172 1.07196,0.7182 1.59056,1.19217 0.5186,0.47397 1.21636,0.94338 1.55062,1.04313 0.33422,0.0998 1.15761,0.38394 1.82973,0.63151 1.33892,0.49318 2.24352,0.49182 4.68137,-0.007 0.65437,-0.1339 1.79349,-0.24266 2.53137,-0.2417 0.84495,9.8e-4 2.44012,-0.22087 4.30936,-0.59969 3.49103,-0.70749 5.21001,-0.97327 6.29497,-0.97327 0.47835,0 1.07889,-0.15271 1.5243,-0.38761 0.96284,-0.50776 2.8861,-0.54243 3.79012,-0.0683 1.42413,0.74689 2.39461,2.10403 2.5504,3.56663 0.0479,0.44951 0.021,2.58619 -0.0599,4.74819 l -0.14694,3.93089 -0.93094,1.74287 c -1.03188,1.93184 -1.69974,2.74126 -2.67776,3.24533 -0.98865,0.50955 -1.99136,0.58128 -3.48378,0.24925 -1.27799,-0.28433 -1.34614,-0.28281 -1.99688,0.0443 -0.37056,0.1863 -1.10582,0.43296 -1.63391,0.54814 -0.5281,0.11516 -1.29964,0.33085 -1.71454,0.47931 l -0.75436,0.26992 0.3423,0.37362 c 0.18826,0.20549 0.56452,0.8057 0.83613,1.3338 0.64408,1.2524 0.69687,3.02469 0.12217,4.10256 -0.43032,0.80715 -1.3081,1.68091 -2.06138,2.05197 -1.52648,0.75192 -4.10662,0.83763 -5.4119,0.17978 -0.38406,-0.19358 -1.32679,-0.48814 -2.09492,-0.65459 -0.76814,-0.16644 -1.82869,-0.52492 -2.35679,-0.79661 -1.57293,-0.8092 -2.92481,-1.26499 -3.44707,-1.16221 -0.2645,0.052 -1.10939,0.25473 -1.87754,0.45042 -0.76814,0.19566 -1.68062,0.35845 -2.02773,0.36172 -0.34776,0.004 -0.82052,0.15495 -1.05296,0.33778 -0.232,0.18249 -1.5587,0.87459 -2.94822,1.53799 -1.91655,0.91505 -2.57579,1.31467 -2.73112,1.65558 -0.29349,0.64414 -2.28947,2.732 -2.92365,3.05824 -0.2952,0.15186 -0.89024,0.58688 -1.32232,0.96672 -0.83476,0.73383 -1.90824,1.3531 -2.34556,1.3531 -0.1455,0 -0.95389,0.3622 -1.79638,0.80489 -0.8425,0.44268 -1.90356,0.91664 -2.35786,1.05327 -0.7145,0.21485 -1.05266,0.50576 -2.50408,2.15429 -1.61126,1.83007 -2.88814,2.95875 -4.00316,3.53854 -0.28747,0.1495 -0.70843,0.47064 -0.93543,0.71367 -0.22702,0.24303 -0.93404,0.65526 -1.5712,0.91609 -2.52533,1.03376 -5.21339,2.42361 -5.95933,3.08122 -0.90562,0.79838 -1.74876,1.26046 -2.61866,1.43514 -0.33606,0.0675 -1.09814,0.28276 -1.69351,0.47839 -0.90282,0.29667 -1.36646,0.33988 -2.79325,0.26034 -5.22263,-0.29113 -7.13717,-1.18733 -8.39204,-3.92835 -0.87737,-1.91642 -2.00679,-3.19144 -3.49786,-3.94878 -0.65579,-0.3331 -0.37099,-0.37416 -8.58788,1.23835 -3.55951,0.69853 -4.59934,0.83854 -6.19749,0.83439 -1.42893,-0.004 -2.12139,-0.0851 -2.70595,-0.31804 -0.43208,-0.17218 -1.06056,-0.42066 -1.39662,-0.55216 -0.44128,-0.17268 -1.55669,-0.2404 -4.01528,-0.24378 -2.86249,-0.004 -3.60567,0.0504 -4.66994,0.3415 -0.69612,0.19038 -1.81375,0.49497 -2.48362,0.67685 -0.66988,0.18187 -1.47512,0.49329 -1.78943,0.69204 -1.4764,0.9335 -2.62299,1.41212 -4.06923,1.69859 -1.03797,0.20562 -1.97782,0.53237 -2.79095,0.97031 -0.86614,0.46649 -1.60911,0.71629 -2.53137,0.85109 -2.1402,0.31282 -4.02233,0.82833 -5.50858,1.50875 -1.01623,0.46525 -2.4336,0.8587 -6.5333,1.81362 -2.25704,0.52572 -2.76728,0.55342 -6.1975,0.33655 z M 26.714931,174.58785 c -1.116041,-0.32096 -2.732202,-1.23101 -4.602002,-2.59136 -0.857375,-0.6238 -1.873104,-1.29443 -2.257174,-1.49032 -0.882663,-0.45022 -2.210054,-1.82139 -2.686487,-2.7751 -0.201184,-0.40271 -0.557659,-1.32001 -0.792172,-2.03842 -0.321424,-0.98465 -0.59036,-1.4586 -1.09252,-1.92534 -0.366377,-0.34054 -0.750644,-0.62129 -0.853934,-0.62389 -0.103274,-0.002 -0.378237,0.19954 -0.61102,0.44921 -0.959176,1.02879 -3.567785,1.94647 -4.9819974,1.75264 -1.9958973,-0.27357 -3.6174419,-1.92615 -3.8469894,-3.92064 -0.091015,-0.79078 -0.014235,-1.19857 0.7851393,-4.17188 0.2724281,-1.01329 0.3205898,-1.61397 0.246214,-3.07116 -0.096238,-1.88578 0.2248667,-4.00014 0.7683695,-5.05928 0.4763773,-0.92835 1.1125097,-3.0098 1.211795,-3.96506 0.086397,-0.83127 0.025314,-1.12256 -0.4548332,-2.16964 -0.8912607,-1.94353 -0.8855705,-3.28013 0.033879,-7.95585 0.3790826,-1.92775 1.5384188,-4.58856 2.4941902,-5.72441 0.437595,-0.52006 0.445876,-0.56724 0.187288,-1.0673 -0.148799,-0.28775 -0.2705444,-0.6098 -0.2705444,-0.71564 0,-0.10583 -0.476514,-0.63364 -1.058921,-1.17284 -1.7610696,-1.63043 -2.197082,-2.98723 -2.0011129,-6.22707 0.2509815,-4.14936 0.3489037,-4.64203 1.2988268,-6.53498 1.1992921,-2.38987 1.6878291,-2.8061 6.0383495,-5.14463 1.152209,-0.61934 2.308592,-1.17635 2.569738,-1.23779 0.261151,-0.0614 0.850349,-0.3442 1.309329,-0.62835 0.458985,-0.28417 1.300539,-0.76299 1.870126,-1.06403 2.005182,-1.05982 2.360294,-1.37525 3.017622,-2.68053 0.987934,-1.96178 2.123864,-3.37018 3.191714,-3.95729 0.336072,-0.18477 0.991044,-0.60878 1.455522,-0.94226 0.464479,-0.33347 1.169534,-0.69384 1.566793,-0.8008 0.397261,-0.10704 1.195626,-0.44 1.774156,-0.74003 1.009453,-0.52353 1.152847,-0.54816 3.555542,-0.61044 1.530436,-0.0397 2.81328,0.0132 3.300124,0.13565 0.782324,0.19699 0.807578,0.18988 1.42431,-0.40123 0.743524,-0.71263 1.605421,-1.1642 3.455022,-1.81023 1.255673,-0.43858 1.588943,-0.47774 4.24322,-0.49875 1.71076,-0.0136 3.199557,-0.11201 3.666123,-0.24257 3.28186,-0.91822 6.319884,2.25517 5.35481,5.59338 -0.159942,0.5532 -0.233408,1.2395 -0.177023,1.65364 0.114439,0.8406 -0.374617,3.40327 -0.814413,4.26749 -0.171014,0.33606 -0.468641,0.75363 -0.661378,0.92795 -0.19275,0.1743 -0.402963,0.59682 -0.467137,0.93895 -0.19247,1.02597 -0.864942,2.36496 -1.875839,3.7351 -0.525023,0.71159 -1.05762,1.49021 -1.183563,1.73025 -0.125943,0.24004 -0.557572,0.86852 -0.959187,1.39662 -0.401616,0.52809 -1.015217,1.4733 -1.363571,2.10045 -1.732287,3.11879 -3.283777,5.2066 -6.406976,8.62177 -2.349517,2.56913 -4.432002,5.86892 -4.801654,7.60838 -0.07136,0.33607 -0.354275,1.05752 -0.628576,1.60325 -0.274302,0.54573 -0.57967,1.37061 -0.678612,1.83307 -0.09891,0.46245 -0.387248,1.33892 -0.6407,1.9477 -0.42198,1.01359 -0.443885,1.18022 -0.259896,1.97731 0.110555,0.47873 0.200929,1.12959 0.200929,1.44632 0,0.31674 0.341521,1.31239 0.758938,2.21254 0.417428,0.90016 0.897914,2.26514 1.067765,3.03328 0.169851,0.76814 0.476445,1.71085 0.681317,2.09492 0.320781,0.60138 0.372504,0.98911 0.372504,2.79325 0,2.06166 -0.0097,2.11293 -0.61103,3.22966 l -0.611015,1.13475 -0.103882,5.58647 c -0.05716,3.07257 -0.19122,6.1461 -0.297941,6.8301 -0.2344,1.50213 -0.872211,3.00333 -1.710844,4.02678 -0.659704,0.80506 -2.890801,2.58169 -3.910218,3.1137 -0.786473,0.41043 -3.091064,0.51105 -4.226485,0.18453 z m 236.063879,-1.31221 c -0.77847,-0.23681 -1.47058,-0.66703 -2.03059,-1.26226 -0.91478,-0.97228 -1.18873,-1.66973 -1.18873,-3.02635 0,-1.3565 0.27379,-2.05362 1.18873,-3.02675 1.01435,-1.07889 1.66652,-1.28803 4.56309,-1.46334 2.96282,-0.17932 3.82345,-0.11263 4.75779,0.36897 1.5453,0.79642 2.39092,2.19275 2.39009,3.94655 0,1.39405 -0.36384,2.26008 -1.32789,3.16648 -0.8431,0.7927 -1.55471,1.09909 -2.98387,1.28473 -1.49493,0.19418 -4.74578,0.20142 -5.36862,0.0122 z m 10.82379,-9.76594 c -0.80596,-0.2643 -1.47843,-0.68575 -2.0306,-1.27264 -0.91478,-0.97228 -1.18873,-1.66973 -1.18873,-3.02636 0,-1.40341 0.27579,-2.06492 1.31014,-3.14238 l 0.67036,-0.69831 -0.006,-2.18222 c -0.004,-1.20022 -0.0139,-2.65357 -0.0231,-3.22967 -0.0192,-1.21175 0.37778,-2.12683 1.29789,-2.99192 0.97356,-0.91535 1.67012,-1.18879 3.02675,-1.18815 1.39368,5.4e-4 2.25884,0.36333 3.16767,1.32789 1.09216,1.15913 1.95107,3.54669 1.73431,4.82091 -0.0608,0.35746 -0.17302,1.82832 -0.24935,3.26857 -0.12851,2.42491 -0.18003,2.70812 -0.69649,3.82762 -0.42776,0.92728 -0.87173,1.51101 -1.90551,2.50529 -0.74129,0.71299 -1.65735,1.45427 -2.03572,1.64729 -0.75249,0.38389 -2.37954,0.56088 -3.07115,0.33408 z m 9.2526,-17.99183 c -0.77849,-0.2368 -1.47058,-0.66704 -2.0306,-1.26226 -0.91545,-0.97299 -1.18884,-1.66955 -1.18781,-3.02635 9.7e-4,-1.5254 0.51285,-2.60042 1.80374,-3.78952 0.86226,-0.79425 0.89207,-0.85333 0.89207,-1.76804 0,-0.64776 -0.0866,-1.01825 -0.27463,-1.17427 -0.15106,-0.12535 -0.42187,-0.51651 -0.60182,-0.86926 -0.28592,-0.56047 -0.4275,-0.6551 -1.12256,-0.75037 -1.04162,-0.14276 -1.95461,-0.62735 -2.73899,-1.45372 -0.90173,-0.95 -1.20404,-1.64986 -1.37145,-3.17484 -0.0806,-0.73442 -0.31643,-1.7674 -0.52396,-2.29549 -0.62543,-1.59137 -0.74234,-2.13824 -0.64068,-2.9967 0.17504,-1.47788 1.14159,-2.82531 2.56051,-3.56943 0.89028,-0.46692 2.82961,-0.43952 3.7534,0.053 1.28418,0.68469 2.24208,2.00481 2.80012,3.85907 0.13102,0.43537 0.57587,1.48399 0.98856,2.33027 0.57602,1.18127 0.8517,1.56559 1.18678,1.65452 0.80396,0.21337 2.17656,0.9702 2.76487,1.52451 0.79639,0.75036 1.23775,1.67209 1.41625,2.95767 0.0828,0.59558 0.27216,1.39711 0.42104,1.78119 0.14886,0.38408 0.27412,1.23171 0.27833,1.88366 0.006,0.87654 0.10861,1.37682 0.39528,1.92034 0.2912,0.55221 0.3889,1.03894 0.39279,1.95705 0.005,1.09099 -0.0637,1.34371 -0.63722,2.35678 -0.68366,1.2076 -1.98586,2.58642 -2.84914,3.01678 -0.6281,0.31312 -3.92879,1.00464 -4.69423,0.9835 -0.29871,-0.009 -0.73999,-0.0748 -0.98065,-0.14811 z m -12.22042,-3.30658 c -1.23464,-0.40489 -2.2788,-1.29168 -2.90347,-2.46594 -0.46304,-0.87038 -0.46351,-3.66713 0,-4.539 0.45283,-0.85325 1.81162,-2.22625 2.64352,-2.67124 1.07614,-0.57558 2.84844,-0.52371 4.10258,0.12015 1.17325,0.60231 2.0047,1.36431 2.49784,2.28924 0.52257,0.98012 0.5201,2.86239 -0.005,3.85726 -0.41224,0.781 -2.4021,2.63437 -3.35034,3.12052 -0.6731,0.34511 -2.32533,0.50512 -2.98429,0.28903 z m 17.80688,-18.67977 c -0.80597,-0.26431 -1.47842,-0.68575 -2.03059,-1.27264 -0.93522,-0.994 -1.19109,-1.66322 -1.19045,-3.11364 0,-1.28512 0.0862,-1.55572 0.94008,-2.96781 0.087,-0.14403 0.26081,-0.53625 0.38604,-0.8716 0.30364,-0.81303 1.27148,-1.86016 2.14601,-2.32189 0.99009,-0.52274 2.87473,-0.52404 3.85261,-0.002 1.3328,0.7106 2.2735,2.01587 2.46622,3.42207 0.31047,2.26502 -1.48523,5.76685 -3.47866,6.78383 -0.76962,0.39264 -2.39267,0.57343 -3.09126,0.34434 z"
       id="path992" />
  </g>
</svg>
