<?xml version="1.0" encoding="UTF-8" standalone="no"?>
<!-- Created with Inkscape (http://www.inkscape.org/) -->

<svg
   version="1.1"
   id="svg2"
   width="300"
   height="300"
   viewBox="0 0 300 300"
   sodipodi:docname="Kamuin_Outline.svg"
   inkscape:version="1.1.1 (3bf5ae0d25, 2021-09-20)"
   xmlns:inkscape="http://www.inkscape.org/namespaces/inkscape"
   xmlns:sodipodi="http://sodipodi.sourceforge.net/DTD/sodipodi-0.dtd"
   xmlns="http://www.w3.org/2000/svg"
   xmlns:svg="http://www.w3.org/2000/svg">
  <defs
     id="defs6" />
  <sodipodi:namedview
     id="namedview4"
     pagecolor="#505050"
     bordercolor="#eeeeee"
     borderopacity="1"
     inkscape:pageshadow="0"
     inkscape:pageopacity="0"
     inkscape:pagecheckerboard="0"
     showgrid="false"
     inkscape:zoom="4.1920331"
     inkscape:cx="112.23671"
     inkscape:cy="145.87194"
     inkscape:window-width="3440"
     inkscape:window-height="1369"
     inkscape:window-x="-8"
     inkscape:window-y="-8"
     inkscape:window-maximized="1"
     inkscape:current-layer="g8" />
  <g
     inkscape:groupmode="layer"
     inkscape:label="Image"
     id="g8">
    <path
       style="fill:#000000;stroke-width:1"
       d="m 191.18511,262.87482 c -0.50962,-0.0938 -1.34591,-0.30548 -1.8584,-0.47045 -0.51251,-0.16499 -1.44125,-0.39013 -2.06387,-0.50034 -1.71579,-0.3037 -2.74228,-0.70672 -4.19631,-1.64751 -3.46149,-2.23965 -4.70768,-2.9162 -6.55743,-3.56006 l -1.99794,-0.69543 -0.49176,0.56362 c -0.73097,0.83783 -2.24148,2.01309 -4.10769,3.19603 l -1.65972,1.05205 -1.76366,-0.0133 c -0.97002,-0.007 -2.1598,-0.0408 -2.64397,-0.0744 -4.61444,-0.3197 -6.18637,-0.46538 -7.53143,-0.69802 -0.86074,-0.14887 -2.13717,-0.33011 -2.83652,-0.40274 -0.69934,-0.0726 -1.66767,-0.25266 -2.15183,-0.40009 -0.48417,-0.14742 -1.98067,-0.5386 -3.32557,-0.8693 -1.3449,-0.3307 -3.50912,-0.94724 -4.80937,-1.3701 -2.24333,-0.72955 -2.44546,-0.84015 -3.95634,-2.16504 -0.87573,-0.76791 -1.71892,-1.58956 -1.87375,-1.82585 -0.15484,-0.23631 -1.12283,-1.06757 -2.1511,-1.84724 -2.25647,-1.71092 -3.66,-3.08895 -5.11445,-5.02145 -0.60073,-0.79818 -1.15874,-1.45124 -1.24001,-1.45124 -0.0813,0 -0.62652,-0.58898 -1.21166,-1.30885 -2.04949,-2.52136 -2.49066,-2.93647 -3.26619,-3.07323 -5.24438,-0.92478 -5.20404,-0.92283 -17.94673,-0.87588 -11.906297,0.0439 -12.153177,0.037 -13.472535,-0.37373 -1.892982,-0.58935 -2.528808,-1.04828 -5.071333,-3.66034 -1.511269,-1.55261 -1.418514,-1.45894 -2.284066,-2.30616 -0.416479,-0.40764 -1.045629,-1.19991 -1.398114,-1.7606 -0.352486,-0.56067 -0.938465,-1.37152 -1.302186,-1.80189 -1.424646,-1.68569 -1.645203,-1.85836 -2.375343,-1.8595 -1.232496,-0.002 -2.176786,-0.38835 -3.020722,-1.23621 -0.892982,-0.89712 -2.159284,-3.16492 -2.367597,-4.2401 -0.193696,-0.99976 -1.103771,-3.75099 -1.391249,-4.20586 -0.135994,-0.21519 -0.350034,-0.78738 -0.475648,-1.27154 -0.125613,-0.48417 -0.493859,-1.40674 -0.818322,-2.05018 -0.324475,-0.64342 -0.710369,-1.74379 -0.85755,-2.44527 -0.317531,-1.51337 -1.160454,-4.04264 -2.01282,-6.0397 -0.337741,-0.79131 -0.614069,-1.55482 -0.614069,-1.69671 0,-0.14188 -0.287704,-0.63884 -0.63934,-1.10434 -0.35163,-0.4655 -1.20992,-1.70298 -1.907311,-2.74995 -0.697385,-1.04697 -1.375245,-1.90526 -1.50636,-1.90731 -0.13111,-0.002 -0.198061,-0.11377 -0.148771,-0.24826 0.122924,-0.33542 -0.06592,-0.55276 -1.014151,-1.16713 -0.652362,-0.42267 -0.85641,-0.47712 -1.025318,-0.27359 -0.207621,0.25016 -0.103673,0.51151 0.203441,0.51151 0.08628,0 0.101604,-0.15405 0.03405,-0.34233 -0.159187,-0.44364 -0.05649,-0.34217 0.812377,0.80283 0.396311,0.52225 0.604123,0.87974 0.461808,0.79445 -0.142321,-0.0853 -0.380075,-0.32349 -0.528337,-0.52931 -0.215942,-0.29979 -0.302921,-0.32162 -0.43716,-0.10978 -0.13007,0.20527 -0.168247,0.18783 -0.17057,-0.0779 -0.0018,-0.21092 -0.153187,-0.34233 -0.394242,-0.34233 -0.300835,0 -0.391243,-0.13043 -0.391243,-0.56437 0,-0.38612 -0.154455,-0.66557 -0.489054,-0.88481 -0.45814,-0.30018 -0.489843,-0.29851 -0.501458,0.0264 -0.01058,0.29618 -0.03588,0.28888 -0.173272,-0.0499 -0.09881,-0.24369 -1.049498,-0.84222 -2.463929,-1.55121 -1.266677,-0.63493 -2.663201,-1.42795 -3.103385,-1.76227 -0.440186,-0.33431 -1.464554,-1.02062 -2.276376,-1.52513 -0.811823,-0.50451 -1.859541,-1.35635 -2.328266,-1.89298 -0.944317,-1.08113 -1.964402,-2.55271 -1.965696,-2.83572 -3.92e-4,-0.10066 -0.170762,-0.36475 -0.37845,-0.58686 -0.359269,-0.38424 -1.259499,-1.67277 -3.283214,-4.69938 -0.500582,-0.74866 -1.321771,-1.761 -1.824859,-2.24965 -0.50309,-0.48864 -1.107698,-1.26795 -1.343577,-1.73178 -0.235878,-0.46383 -0.729829,-1.3138 -1.097669,-1.88883 -0.367842,-0.57502 -0.818046,-1.42794 -1.000455,-1.89537 -0.182411,-0.46743 -0.47746,-1.06995 -0.655665,-1.33893 -0.715705,-1.08026 -1.394052,-2.61364 -1.667332,-3.76892 -0.158651,-0.67069 -0.421138,-1.65156 -0.583307,-2.17972 -0.385658,-1.25604 -0.377012,-3.87296 0.01723,-5.21519 0.433758,-1.47677 0.89066,-2.15022 1.978306,-2.91591 0.515551,-0.36295 1.289486,-0.99896 1.719853,-1.41336 0.430368,-0.41441 1.706799,-1.47103 2.836514,-2.34806 2.029622,-1.57564 5.057221,-4.50068 6.033451,-5.82906 0.276742,-0.37657 0.969083,-1.15826 1.538535,-1.73707 0.569451,-0.57881 1.035367,-1.16417 1.035367,-1.3008 0,-0.13663 0.352119,-0.71704 0.782486,-1.2898 l 0.782487,-1.0414 v -3.55793 c 0,-2.91448 0.06556,-3.76857 0.362509,-4.72267 0.621046,-1.99543 2.865423,-4.74819 4.135223,-5.07191 2.142573,-0.54623 4.941194,-2.43827 5.213934,-3.52495 0.137772,-0.54892 -0.414938,-1.08941 -1.940937,-1.89801 -1.02131,-0.54118 -1.657845,-0.67522 -4.204959,-0.88546 -1.687391,-0.13928 -2.236059,-0.2745 -3.423379,-0.84362 -1.737011,-0.83261 -3.811696,-2.47191 -4.810119,-3.80069 -0.491327,-0.6539 -0.905721,-1.5401 -1.205855,-2.5788 -0.432858,-1.498 -0.494565,-1.59472 -1.155376,-1.81097 -1.184005,-0.38746 -2.998006,-1.41052 -3.645262,-2.05584 -0.339031,-0.33802 -0.826957,-1.04226 -1.084278,-1.56498 -0.799118,-1.6233 -0.538714,-4.50587 0.642524,-7.11246 1.754012,-3.870531 1.915531,-4.08937 5.125539,-6.944572 0.846735,-0.753144 2.122832,-1.899639 2.835773,-2.54777 3.578179,-3.252895 6.89795,-4.519417 12.503677,-4.770259 4.05877,-0.181622 3.946013,-0.09739 4.050933,-3.026102 0.08398,-2.344287 0.466435,-3.94707 1.219334,-5.10998 0.278627,-0.430367 1.570781,-1.838843 2.871458,-3.129946 1.819374,-1.805986 2.513965,-2.645465 3.011266,-3.639395 0.718561,-1.436156 2.970655,-3.914634 4.733194,-5.208989 1.027375,-0.75447 2.622168,-1.57756 3.755722,-1.938378 0.521417,-0.165967 0.497124,-0.199663 -1.956216,-2.713407 -1.931116,-1.978719 -2.897934,-2.800459 -4.342587,-3.690996 -3.656579,-2.254052 -4.527279,-3.174196 -5.19208,-5.486945 -0.638992,-2.222948 -0.0552,-4.460371 1.594212,-6.109767 0.684853,-0.684848 1.149412,-0.92683 2.748955,-1.43188 1.058656,-0.334268 2.62907,-0.69359 3.489805,-0.798493 1.970002,-0.240098 6.312528,-0.0496 7.718222,0.338577 1.756212,0.484973 5.220555,2.517146 6.613235,3.8793 0.503671,0.492631 0.956584,0.690846 2.151838,0.941737 0.832645,0.174776 2.306166,0.543296 3.274489,0.818935 1.776102,0.505574 2.345462,0.602518 7.140202,1.215769 3.32761,0.425606 11.53592,0.527712 21.81182,0.271331 8.96727,-0.223733 11.6671,-0.536672 16.46317,-1.908256 0.92513,-0.264573 4.10249,-0.749313 8.27335,-1.26219 0.90925,-0.111808 1.78955,-0.275727 1.95622,-0.364265 0.16667,-0.08854 1.13932,-0.30971 2.16144,-0.491492 1.02213,-0.181779 3.0028,-0.581563 4.40149,-0.888406 3.84598,-0.843722 5.06352,-1.02066 7.67151,-1.114849 2.70353,-0.09764 3.69221,0.104962 5.888,1.206596 1.5642,0.784769 3.20603,1.520217 4.14425,1.856408 2.90232,1.03997 4.97695,2.662399 7.14482,5.587477 0.31896,0.430368 0.67965,0.846821 0.80154,0.925453 0.28478,0.18372 3.00846,4.514772 3.00846,4.783905 0,0.111816 0.27236,0.545521 0.60525,0.963785 0.64955,0.816146 1.21697,1.869287 1.65952,3.080093 0.1517,0.415054 0.73219,1.446415 1.28998,2.29191 0.9994,1.514894 1.03003,1.540527 2.10417,1.760858 0.59953,0.122972 1.3101,0.336072 1.57908,0.473545 0.26898,0.137479 1.19732,0.441811 2.06297,0.676288 1.72675,0.467719 1.41184,0.467065 10.55462,0.02195 4.89309,-0.238213 6.62367,-0.147884 9.8789,0.515609 4.27621,0.871599 5.68075,1.067367 8.90078,1.240596 1.93666,0.104193 4.40149,0.358575 5.47741,0.565298 1.07592,0.206729 2.55147,0.473093 3.27903,0.59192 1.44737,0.236403 3.12212,1.03729 5.85285,2.798906 2.64069,1.703535 3.91871,3.244269 4.56974,5.509116 0.75679,2.632768 -0.31668,5.477137 -2.65066,7.023478 -1.10659,0.733147 -2.84752,2.010636 -4.54531,3.335343 -0.67313,0.525207 -1.53197,1.078156 -1.90854,1.228778 -0.37657,0.150617 -0.90475,0.394826 -1.17373,0.542679 -0.72746,0.399869 -2.60637,0.6973 -4.38852,0.69469 -1.90193,-0.0031 -7.92723,0.689658 -9.69624,1.114309 -2.6493,0.635966 -3.45744,0.839297 -4.59711,1.15665 -0.81372,0.226591 -2.49371,0.376694 -5.47741,0.489397 -4.59992,0.173754 -5.13841,0.217195 -8.31392,0.670744 -1.12971,0.161357 -2.71425,0.359557 -3.52119,0.440457 l -1.46716,0.14708 1.46716,0.32629 c 0.80694,0.17947 1.99534,0.41683 2.6409,0.52749 0.64555,0.11065 2.18607,0.37639 3.42337,0.59053 2.75444,0.47671 5.33144,0.79926 6.38568,0.79926 0.43458,0 1.22229,0.13109 1.75044,0.29131 0.63914,0.1939 1.82023,0.29202 3.53168,0.29344 3.31937,0.002 4.78778,0.40642 6.04258,1.6612 1.03272,1.03273 1.24597,1.73877 1.46413,4.84733 0.0895,1.27542 0.25796,2.43371 0.37436,2.57397 0.11641,0.14025 0.6038,1.40621 1.08312,2.81323 1.12412,3.2999 1.3286,5.23531 1.24419,11.7766 -0.0608,4.70913 -0.0885,5.03216 -0.49525,5.77084 -0.23698,0.43037 -0.62359,1.21017 -0.85909,1.73288 -0.58817,1.30537 -1.51441,2.17145 -2.7554,2.57639 -0.57242,0.18679 -1.12881,0.40742 -1.23641,0.4903 -0.10759,0.0829 -0.85584,0.50017 -1.66278,0.92731 -0.80694,0.42712 -1.73125,0.91836 -2.05403,1.09163 -0.32277,0.17326 -1.11504,0.54206 -1.76059,0.81954 -0.64555,0.27748 -1.34543,0.59885 -1.55529,0.71415 -0.88646,0.48707 -4.29468,1.50397 -6.3751,1.90214 -1.23306,0.236 -2.46201,0.52741 -2.73099,0.64759 -0.44082,0.19696 -0.33471,0.24425 1.07592,0.47954 0.86073,0.14357 3.15935,0.37969 5.10803,0.52471 1.94869,0.14502 3.66527,0.34241 3.81463,0.43864 0.14935,0.0962 1.73052,0.21898 3.51371,0.27278 3.13405,0.0945 3.26935,0.1158 4.05749,0.63744 0.44842,0.29679 1.05816,0.90658 1.35495,1.35506 0.72593,1.09699 0.75766,2.91513 0.0761,4.3652 -1.17729,2.50492 -1.3897,3.00391 -1.70543,4.00631 -0.18572,0.58957 -0.54183,1.47846 -0.79137,1.97529 -0.65991,1.31383 -1.04384,3.17423 -1.04654,5.07103 -0.004,2.65493 -0.39523,5.78977 -1.02603,8.21611 -0.32168,1.23731 -0.66435,2.90987 -0.76152,3.71681 -0.275,2.28423 -0.79974,3.84679 -2.56205,7.62924 -0.71226,1.52873 -1.89814,3.05269 -3.02525,3.88775 -0.59923,0.44394 -1.16317,0.80717 -1.25324,0.80717 -0.09,0 -0.5224,0.52818 -0.96079,1.17373 -0.43839,0.64556 -0.86124,1.17373 -0.93969,1.17373 -0.0784,0 -0.43747,0.49292 -0.79781,1.09538 -0.65108,1.08853 -0.6537,1.10289 -0.42124,2.29855 0.12866,0.66175 0.31303,1.61698 0.4097,2.12273 0.0967,0.50574 0.43395,1.34202 0.74947,1.8584 1.02622,1.67943 1.44381,3.49142 1.36116,5.90613 -0.0717,2.09362 -0.0804,2.12733 -0.85102,3.26901 -0.42823,0.63446 -0.92785,1.61103 -1.11025,2.17015 -0.73839,2.26344 -0.93225,9.82856 -0.34742,13.55723 0.21593,1.37662 0.88171,3.5771 1.27251,4.20586 0.13377,0.21519 0.52439,1.22753 0.86806,2.24965 0.60057,1.78622 0.62182,1.9572 0.54686,4.40149 -0.0606,1.97684 -0.17179,2.79809 -0.49934,3.68837 -1.08802,2.95719 -2.98327,4.0119 -6.21277,3.45741 -0.75021,-0.12881 -2.20032,-0.30663 -3.22244,-0.39517 -1.69762,-0.14705 -3.84172,-0.71302 -4.3802,-1.15624 -0.41824,-0.34426 -6.7731,-2.38793 -6.99633,-2.24996 -0.13969,0.0863 -0.17244,0.0534 -0.086,-0.0864 0.0769,-0.12445 0.0304,-0.22584 -0.10364,-0.22584 -0.13377,0 -0.62772,-0.18614 -1.09768,-0.41365 -0.46995,-0.22749 -0.89684,-0.37125 -0.94865,-0.31943 -0.11272,0.11272 5.17885,4.3705 6.23026,5.0131 0.40484,0.24743 0.82824,0.62212 0.94092,0.83263 0.11266,0.21052 0.61772,0.63706 1.12234,0.94786 0.50462,0.31079 1.34901,1.05499 1.87638,1.65377 0.52738,0.59877 1.05714,1.08869 1.17724,1.08869 0.12008,0 0.55151,0.22641 0.95874,0.50312 0.40722,0.27673 1.63721,0.81167 2.73328,1.18878 1.09609,0.37709 2.08179,0.75578 2.19044,0.84148 0.19215,0.15161 1.95903,1.12067 3.88921,2.13314 1.74355,0.91453 2.42056,2.68815 1.81028,4.74251 -0.64015,2.15493 -3.18004,4.77511 -5.98102,6.17005 -0.59725,0.29744 -1.39402,0.738 -1.77059,0.979 -0.37657,0.24101 -1.12482,0.54094 -1.66278,0.66649 -0.53796,0.12557 -1.78362,0.47968 -2.76816,0.78692 -1.6469,0.51394 -2.10053,0.56631 -5.67303,0.65486 -2.13563,0.0529 -4.29994,0.0196 -4.80956,-0.0742 z m 69.00292,-11.15523 c -0.64555,-0.086 -3.06637,-0.16751 -5.3796,-0.18105 -2.88416,-0.0168 -4.63615,-0.11576 -5.57513,-0.31467 -0.7945,-0.16827 -2.40139,-0.29003 -3.82803,-0.29003 -2.81794,0 -3.98988,-0.26644 -5.69008,-1.29365 -1.32968,-0.80333 -2.10726,-1.93207 -2.70893,-3.9323 -0.37622,-1.25071 -0.41705,-1.7739 -0.35867,-4.59711 0.0572,-2.76842 0.12079,-3.3011 0.4853,-4.06608 0.43077,-0.90408 0.70789,-1.81284 1.42729,-4.6804 0.22743,-0.90655 0.60891,-1.96291 0.84773,-2.34746 0.23883,-0.38455 0.63674,-1.40343 0.88428,-2.26417 0.26161,-0.90966 0.75334,-2.00721 1.17436,-2.62111 0.39836,-0.58088 0.93345,-1.37315 1.1891,-1.7606 0.25564,-0.38744 0.88967,-1.19887 1.40895,-1.80314 0.5193,-0.60428 1.09161,-1.44056 1.27185,-1.85841 0.18023,-0.41784 0.49632,-1.12906 0.70238,-1.58048 0.28884,-0.63266 0.36157,-1.16861 0.31738,-2.33836 l -0.0573,-1.5176 -0.81702,-0.59596 c -1.69052,-1.23314 -3.71233,-2.39838 -4.56258,-2.62956 -0.81762,-0.22231 -0.96384,-0.20056 -2.05403,0.30571 -1.03407,0.48021 -1.40647,0.54561 -3.12994,0.54962 -2.36542,0.006 -3.71889,-0.45484 -5.19697,-1.7676 -0.52743,-0.46843 -1.13366,-0.94518 -1.34715,-1.05945 -0.21349,-0.11426 -0.63303,-0.62426 -0.93227,-1.13335 l -0.5441,-0.9256 0.0675,-4.29714 c 0.046,-2.92872 0.14969,-4.51726 0.32573,-4.98836 0.14206,-0.38017 0.30441,-1.32662 0.36081,-2.10325 0.0564,-0.77663 0.27923,-1.81157 0.49523,-2.29988 0.44212,-0.99948 1.78159,-2.7964 2.83932,-3.80898 0.3873,-0.37078 0.70419,-0.81432 0.70419,-0.98565 0,-0.17133 0.17412,-0.65303 0.38694,-1.07045 0.21282,-0.41742 0.48866,-1.07425 0.61302,-1.45962 0.3011,-0.93314 1.7056,-3.34114 2.01889,-3.46136 0.13678,-0.0524 0.5471,-0.49369 0.91182,-0.98046 0.36471,-0.48678 1.15272,-1.18245 1.75108,-1.54594 0.59839,-0.3635 1.43542,-0.93974 1.86007,-1.28054 0.42466,-0.34079 1.14422,-0.78111 1.59901,-0.97846 0.4548,-0.19737 1.39074,-0.78098 2.07985,-1.29692 0.68912,-0.51595 1.81351,-1.33421 2.49866,-1.81838 0.68515,-0.48416 1.97253,-1.56083 2.86087,-2.3926 1.37412,-1.28664 2.00171,-1.70008 4.20586,-2.77069 1.42489,-0.69211 3.1189,-1.39104 3.76445,-1.55318 0.64555,-0.16214 2.33127,-0.78596 3.746,-1.38627 2.25939,-0.95871 2.731,-1.09148 3.87712,-1.09148 2.57209,0 5.18938,1.58088 6.1535,3.71682 0.50593,1.12085 0.55736,4.0827 0.0986,5.6793 -0.40738,1.41778 -0.40431,1.46174 0.20337,2.89702 0.73418,1.73411 1.45624,5.71432 1.58484,8.73619 0.11603,2.72602 0.53503,6.04161 0.96414,7.62925 0.14539,0.53796 0.32061,1.59431 0.38935,2.34746 0.13788,1.51086 0.55697,3.9146 0.97201,5.57521 0.14791,0.59176 0.36802,1.69213 0.48915,2.44528 0.21851,1.3587 0.92013,4.47531 1.47815,6.56615 0.15983,0.59882 0.2906,1.55093 0.2906,2.11579 0,0.56488 0.0856,1.18707 0.19032,1.38266 0.10466,0.19557 0.28768,1.00406 0.4067,1.79664 0.48303,3.21677 1.65509,7.36747 2.72697,9.65714 0.42761,0.91344 1.49875,4.19139 1.69398,5.18397 0.0741,0.37657 0.37665,1.08081 0.67243,1.56498 0.81351,1.33161 1.08889,2.97677 0.792,4.73166 -0.13309,0.78672 -0.33466,2.09064 -0.44794,2.89758 -0.36668,2.6122 -1.0331,4.45894 -2.13639,5.92028 -2.14098,2.83576 -5.59564,4.25441 -11.03826,4.53284 -1.57114,0.0804 -2.9954,0.26882 -3.72657,0.49307 -1.378,0.42262 -4.56274,0.62804 -6.25013,0.40313 z M 52.901054,226.19449 c -0.05007,-0.0501 -0.915247,-0.23328 -1.922627,-0.40711 -3.982453,-0.68726 -6.320189,-2.13758 -7.74495,-4.80488 l -0.772359,-1.44594 v -3.91243 c 0,-3.71722 0.02196,-3.94774 0.440148,-4.62019 0.242082,-0.38929 0.440149,-0.83822 0.440149,-0.99767 0,-0.46255 1.105035,-1.86136 1.95928,-2.48017 0.711038,-0.51508 5.232942,-2.17211 5.927495,-2.17211 0.158377,0 0.569654,-0.26314 0.913948,-0.58475 0.631209,-0.58964 1.967312,-1.09521 3.444827,-1.30348 1.299027,-0.18313 2.889989,0.38596 3.85615,1.37934 0.450766,0.46347 1.303738,1.14871 1.895494,1.52276 1.207487,0.76326 2.102881,1.85788 3.971184,4.85478 1.515933,2.43168 1.779649,3.32417 1.662509,5.62647 -0.121035,2.37878 -0.633643,3.3206 -3.178241,5.83943 -1.779952,1.76191 -2.135782,2.02316 -3.253986,2.38914 -2.568805,0.84077 -7.233155,1.52267 -7.639021,1.11681 z M 29.941331,204.54682 c -1.852157,-0.63565 -5.451299,-2.98325 -6.520527,-4.25313 -0.502202,-0.59643 -1.500412,-1.66914 -2.218244,-2.3838 -1.872647,-1.86436 -3.568721,-4.59986 -4.362402,-7.03584 -0.192096,-0.58959 -0.624032,-1.64417 -0.959858,-2.34352 l -0.610593,-1.27154 0.05434,-3.71681 c 0.06936,-4.74416 0.237991,-5.71763 1.265289,-7.30417 1.859131,-2.8712 3.062795,-3.55283 6.273774,-3.55283 1.790826,0 6.039701,0.74568 7.343307,1.28876 1.045241,0.43545 3.49897,3.07875 3.760894,4.05145 0.263524,0.97865 0.113654,2.30306 -0.349298,3.08678 l -0.336628,0.56986 0.970866,0.88876 c 0.533977,0.48881 1.391899,1.21374 1.906496,1.61094 0.514595,0.3972 1.284866,1.25208 1.711711,1.89972 0.426847,0.64765 1.282245,1.93277 1.900885,2.85583 0.618642,0.92306 1.47033,2.19735 1.89264,2.83176 0.422308,0.63441 0.929314,1.68379 1.126677,2.33195 0.197362,0.64817 0.596945,1.65719 0.887962,2.24225 0.725296,1.45817 0.724713,2.79841 -0.0018,3.89609 -0.514164,0.77697 -2.448444,2.51417 -3.86433,3.47064 -1.735336,1.17224 -7.475957,1.65891 -9.871263,0.83685 z m 23.783476,-8.8924 c 0.0094,-0.22789 0.05574,-0.27424 0.118187,-0.11819 0.05651,0.14122 0.04956,0.30994 -0.01544,0.37494 -0.065,0.065 -0.111238,-0.0506 -0.102744,-0.25675 z m -1.17373,-1.56498 c 0.0094,-0.22788 0.05574,-0.27423 0.118187,-0.11818 0.05651,0.14121 0.04956,0.30994 -0.01544,0.37494 -0.065,0.065 -0.111238,-0.0506 -0.102744,-0.25676 z M 274.46841,78.785295 c -1.05428,-0.204944 -5.51729,-0.24446 -9.60757,-0.08506 -2.14021,0.0834 -3.69924,0.05508 -4.32245,-0.0786 -3.90559,-0.837597 -5.92176,-2.879374 -5.92176,-5.996947 0,-1.035254 0.11315,-1.607992 0.46376,-2.34746 0.84816,-1.788819 2.83637,-3.214058 4.49677,-3.22346 0.43536,-0.0024 1.26875,-0.252511 1.95622,-0.586932 0.65876,-0.320453 1.7212,-0.716269 2.36098,-0.879601 0.6398,-0.163331 1.2181,-0.363306 1.28512,-0.444379 0.067,-0.08108 0.37138,-0.807636 0.67638,-1.614575 0.42484,-1.124085 0.79907,-1.714282 1.6003,-2.523942 0.89614,-0.905567 1.04579,-1.163457 1.04579,-1.802259 0,-0.410014 0.1887,-1.210892 0.41932,-1.779733 0.36168,-0.892127 0.41626,-1.395132 0.39714,-3.660308 -0.0189,-2.239805 0.036,-2.757712 0.37284,-3.52119 1.57237,-3.563421 6.25808,-4.5026 9.0485,-1.813638 0.41259,0.397583 0.90888,1.030983 1.10288,1.407555 0.35476,0.688672 0.9844,2.926009 1.36528,4.851264 0.25341,1.280997 0.24901,4.890072 -0.008,6.983845 -0.10587,0.860735 -0.25516,2.467761 -0.33179,3.571165 l -0.1393,2.006192 0.9292,1.89701 c 0.83413,1.70293 0.9292,2.034453 0.9292,3.24029 0,2.612552 -1.56573,5.220934 -3.71681,6.191908 -0.93168,0.420556 -2.84532,0.511355 -4.40149,0.208851 z M 244.3211,65.986198 c -1.2412,-0.581284 -3.22625,-2.660425 -3.68035,-3.854817 -0.27189,-0.715126 -0.32953,-1.338015 -0.27154,-2.934321 0.0664,-1.826631 0.13717,-2.151875 0.71817,-3.298019 2.15766,-4.256567 2.79805,-5.312392 3.98334,-6.567457 l 0.75232,-0.796619 -0.41291,-0.524943 c -0.22712,-0.288719 -0.71426,-1.103032 -1.08254,-1.809584 -0.58306,-1.118655 -0.66904,-1.466051 -0.66529,-2.688681 0.01,-3.259168 2.34216,-5.606086 5.57092,-5.606086 1.73882,0 2.99651,0.556633 4.18693,1.853088 l 0.86136,0.938085 1.49877,-0.03962 c 1.37925,-0.03646 1.607,0.01669 2.85546,0.666365 0.74618,0.388291 1.66477,0.999409 2.04134,1.35804 0.37658,0.358631 1.06884,0.889829 1.53839,1.180436 1.38342,0.856225 2.59665,2.089003 3.08646,3.136187 0.38387,0.820711 0.4575,1.292903 0.4575,2.934325 0,1.637717 -0.0742,2.115466 -0.45548,2.934325 -0.33537,0.720175 -0.48524,1.476583 -0.56826,2.868371 -0.1383,2.31823 -0.46897,3.125197 -2.17072,5.297704 -1.64475,2.099754 -2.05503,2.464203 -4.01317,3.564868 -3.21472,1.806988 -2.84812,1.728703 -8.36205,1.785616 -4.76464,0.04915 -4.94081,0.03723 -5.86865,-0.397263 z m -16.15049,-5.490715 c -0.0542,-0.05416 -1.4553,-0.123991 -3.11363,-0.155173 -2.63537,-0.04955 -3.13837,-0.112287 -3.99328,-0.498041 -1.13482,-0.512059 -2.32627,-1.594819 -2.83227,-2.573876 -0.19462,-0.376572 -0.55175,-0.860736 -0.79363,-1.075919 -0.24189,-0.215184 -0.64653,-0.831392 -0.89922,-1.369352 -1.34686,-2.867512 0.32729,-7.22816 3.25358,-8.474514 0.48416,-0.206215 2.08578,-0.580959 3.55914,-0.832767 l 2.67886,-0.457833 0.33768,-0.888283 c 0.44984,-1.183306 2.44228,-3.258308 3.69445,-3.847559 1.29152,-0.607759 3.3226,-0.633453 4.59711,-0.05815 2.09846,0.947213 3.71681,3.586224 3.71681,6.060864 0,0.961004 0.12603,1.468219 0.60809,2.447449 0.55483,1.126999 0.60156,1.369048 0.53339,2.762709 -0.0668,1.36585 -0.18443,1.755194 -1.1114,3.679327 -1.19379,2.477959 -2.63615,4.150102 -4.23594,4.910728 -0.86811,0.412748 -1.25493,0.46526 -3.43967,0.466957 -1.35388,9.78e-4 -2.5059,-0.04241 -2.56007,-0.09657 z"
       id="path991" />
  </g>
</svg>
